<?xml version="1.0" standalone="no"?>
<!DOCTYPE svg PUBLIC "-//W3C//DTD SVG 20010904//EN"
 "http://www.w3.org/TR/2001/REC-SVG-20010904/DTD/svg10.dtd">
<svg version="1.0" xmlns="http://www.w3.org/2000/svg"
 width="4711.000000pt" height="575.000000pt" viewBox="0 0 4711.000000 575.000000"
 preserveAspectRatio="xMidYMid meet">

<g transform="translate(0.000000,575.000000) scale(0.100000,-0.100000)"
fill="#000000" stroke="none">
<path d="M16870 4225 l0 -1515 290 0 290 0 0 490 0 490 473 0 c586 0 741 12
927 72 218 69 323 184 385 421 41 157 50 253 49 532 -1 219 -4 278 -22 378
-65 358 -187 507 -482 591 -183 52 -265 56 -1121 56 l-789 0 0 -1515z m1608
1012 c120 -32 162 -68 192 -165 44 -140 52 -491 15 -650 -22 -94 -65 -159
-126 -189 -103 -51 -150 -55 -646 -60 l-463 -5 0 547 0 546 483 -4 c409 -3
492 -6 545 -20z"/>
<path d="M19670 4225 l0 -1515 285 0 285 0 0 510 0 510 461 0 c523 0 555 -3
657 -70 67 -43 113 -102 145 -188 20 -54 21 -78 25 -409 l3 -353 285 0 284 0
0 398 c0 436 -5 482 -59 599 -58 123 -185 217 -331 243 -36 7 -75 14 -87 16
-40 7 -25 19 48 38 159 41 277 107 342 192 39 51 77 154 96 259 19 105 33 356
26 475 -30 536 -196 732 -673 795 -92 12 -267 15 -953 15 l-839 0 0 -1515z
m1690 1008 c36 -13 77 -34 93 -48 71 -67 99 -186 99 -430 0 -355 -57 -468
-264 -521 -53 -14 -143 -17 -555 -21 l-493 -5 0 527 0 526 528 -3 c512 -3 529
-4 592 -25z"/>
<path d="M22600 4225 l0 -1515 285 0 285 0 0 1515 0 1515 -285 0 -285 0 0
-1515z"/>
<path d="M23720 4225 l0 -1515 286 0 286 0 -6 1208 c-3 664 -8 1236 -12 1271
-5 50 -3 62 7 59 8 -3 75 -142 150 -310 201 -451 193 -434 676 -1365 l448
-862 488 -1 487 0 0 1515 0 1515 -286 0 -286 0 5 -1237 c3 -681 7 -1249 9
-1262 9 -71 -32 1 -167 292 -154 331 -329 682 -825 1650 l-285 557 -487 0
-488 0 0 -1515z"/>
<path d="M26820 5485 l0 -255 440 0 440 0 0 -1260 0 -1260 285 0 285 0 0 1260
0 1260 455 0 455 0 0 255 0 255 -1180 0 -1180 0 0 -255z"/>
<path d="M29602 5709 c-56 -28 -109 -91 -127 -153 -19 -62 -19 -80 0 -142 50
-169 262 -230 396 -115 76 64 106 167 77 263 -15 51 -82 126 -133 149 -57 26
-157 25 -213 -2z"/>
<path d="M30700 5301 c-71 -23 -131 -74 -166 -141 -15 -28 -19 -63 -22 -182
l-4 -148 -66 0 c-83 0 -139 -24 -178 -75 -23 -31 -29 -50 -32 -104 -3 -59 0
-71 26 -112 38 -59 86 -82 179 -87 l72 -4 3 -652 c4 -644 4 -652 27 -726 32
-105 67 -166 133 -232 62 -62 145 -106 249 -135 61 -17 454 -18 7836 -23
l7772 -5 28 -21 c55 -41 54 -16 51 -1078 -3 -932 -4 -983 -21 -1010 -10 -15
-34 -34 -52 -42 -30 -12 -3231 -14 -23149 -14 -17043 0 -23129 -3 -23168 -11
-139 -30 -211 -112 -211 -239 0 -108 36 -170 128 -218 l50 -27 23185 -3
c21235 -2 23193 -1 23283 13 269 44 359 119 420 346 l22 84 0 1135 0 1135 -22
87 c-48 186 -121 269 -283 319 -168 52 342 49 -7955 49 -5102 0 -7712 3 -7736
10 -20 6 -45 20 -55 31 -18 20 -19 48 -22 625 l-2 604 327 0 c368 0 378 2 440
73 77 88 46 235 -59 286 -42 20 -58 21 -376 21 l-332 0 0 134 c0 188 -28 254
-129 309 -52 29 -147 43 -191 28z"/>
<path d="M29655 4821 c-53 -14 -113 -50 -139 -84 -59 -77 -56 -30 -56 -967 0
-933 -2 -891 54 -965 13 -17 48 -44 77 -60 102 -55 219 -35 303 51 68 71 66
34 66 975 0 918 2 889 -55 963 -50 65 -171 108 -250 87z"/>
</g>
</svg>
